<svg width="189" height="26" viewBox="0 0 189 26" fill="none" xmlns="http://www.w3.org/2000/svg">
<path d="M18.64 15.496C19.4933 13.3627 20.496 10.984 21.648 8.36C23.184 4.712 24.176 2.33333 24.624 1.224H32.976L32.784 2.792L30 3.176L29.392 23.08L32.144 23.528L32.048 25H21.936L22.064 23.496L25.008 23.112L25.808 9.416L26.16 3.08L23.856 8.648L16.752 25.032L14.512 25.288L12.176 9.032L11.248 3.08L9.904 9.192L6.576 23.08L9.968 23.528L9.84 25H0.816L0.976 23.528L3.568 23.08L8.688 3.176L5.68 2.792L5.904 1.224H15.216L17.168 15.464L17.552 18.376L18.64 15.496ZM45.9318 0.903999C47.9158 0.903999 49.5478 1.36267 50.8278 2.28C52.1291 3.19733 53.0784 4.43467 53.6758 5.992C54.2731 7.528 54.5718 9.256 54.5718 11.176C54.5718 13.7147 54.1238 16.0613 53.2278 18.216C52.3318 20.3493 50.9878 22.0667 49.1958 23.368C47.4251 24.6693 45.2704 25.32 42.7318 25.32C39.8518 25.32 37.6864 24.3707 36.2358 22.472C34.8064 20.5733 34.0918 18.0773 34.0918 14.984C34.0918 12.424 34.5504 10.0773 35.4678 7.944C36.4064 5.78933 37.7718 4.08267 39.5638 2.824C41.3558 1.544 43.4784 0.903999 45.9318 0.903999ZM45.5158 2.728C44.1931 2.728 43.0198 3.28267 41.9958 4.392C40.9931 5.50133 40.2144 6.984 39.6598 8.84C39.1264 10.696 38.8704 12.712 38.8918 14.888C38.8918 17.384 39.2224 19.4533 39.8838 21.096C40.5664 22.7173 41.6544 23.528 43.1478 23.528C44.5131 23.528 45.6864 23.0053 46.6678 21.96C47.6704 20.8933 48.4278 19.4533 48.9398 17.64C49.4731 15.8053 49.7397 13.7573 49.7397 11.496C49.7397 8.70133 49.3984 6.54667 48.7158 5.032C48.0331 3.496 46.9664 2.728 45.5158 2.728ZM68.8813 3.528C68.2199 2.99467 67.2919 2.728 66.0973 2.728C64.9239 2.728 63.9639 3.016 63.2173 3.592C62.4919 4.14667 62.1293 4.904 62.1293 5.864C62.1293 6.99467 62.4706 7.95467 63.1533 8.744C63.8573 9.512 65.0093 10.3973 66.6093 11.4C68.1453 12.36 69.3506 13.3627 70.2253 14.408C71.1213 15.4533 71.5693 16.712 71.5693 18.184C71.5906 19.528 71.2599 20.744 70.5773 21.832C69.8946 22.92 68.8813 23.784 67.5373 24.424C66.2146 25.0427 64.6253 25.352 62.7693 25.352C61.2546 25.352 59.8039 25.192 58.4173 24.872C57.0306 24.5307 56.1239 24.2 55.6973 23.88L56.5293 19.112H59.1853L59.3453 22.536C59.7293 22.8347 60.2093 23.0693 60.7853 23.24C61.3826 23.4107 62.0226 23.496 62.7053 23.496C64.1559 23.496 65.2866 23.176 66.0973 22.536C66.9293 21.8747 67.3453 20.9893 67.3453 19.88C67.3453 18.856 67.0253 17.9813 66.3853 17.256C65.7453 16.5093 64.6999 15.6773 63.2493 14.76C61.6493 13.7573 60.3799 12.7013 59.4413 11.592C58.5239 10.4827 58.0546 9.18133 58.0333 7.688C58.0333 6.30133 58.3959 5.096 59.1213 4.072C59.8466 3.048 60.8386 2.26933 62.0973 1.736C63.3773 1.20267 64.8173 0.935999 66.4173 0.935999C69.1266 0.935999 71.1533 1.34133 72.4973 2.152L71.6973 6.632H69.2653L68.8813 3.528ZM95.7848 1.224L94.5688 9.64L92.2328 9.672L92.1368 3.272L87.6888 2.92L85.0328 23.08L89.2888 23.496L89.1287 25H76.4888L76.6488 23.496L80.5528 23.08L83.1768 2.92L78.7608 3.272L76.5528 9.64H74.1528L75.5608 1.224H95.7848ZM101.893 1.224C102.426 1.224 103.183 1.18133 104.165 1.096C105.274 1.01067 106.245 0.967999 107.077 0.967999C109.999 0.967999 112.069 1.448 113.285 2.408C114.522 3.34667 115.151 4.78666 115.173 6.728C115.173 8.49867 114.671 10.0347 113.669 11.336C112.687 12.616 111.322 13.5333 109.573 14.088C109.978 14.4933 110.383 15.1333 110.789 16.008C111.215 16.8827 111.727 18.0133 112.325 19.4C112.495 19.7413 112.613 19.9973 112.677 20.168C113.125 21.1493 113.466 21.8427 113.701 22.248C113.935 22.6533 114.223 22.9627 114.565 23.176C114.906 23.368 115.375 23.464 115.973 23.464L115.877 25H110.533C110.277 25 110.01 24.7547 109.733 24.264C109.477 23.752 109.135 22.9093 108.709 21.736L108.421 21C107.717 19.144 107.119 17.672 106.629 16.584C106.159 15.4747 105.754 14.8133 105.413 14.6H103.525H102.309L101.285 23.08L104.165 23.528L104.069 25H94.5648L94.6608 23.528L96.8368 23.08L99.4288 3.176L97.2208 2.792L97.3808 1.224H101.893ZM102.565 12.648C102.97 12.6907 103.93 12.712 105.445 12.712C106.981 12.6693 108.207 12.136 109.125 11.112C110.042 10.088 110.501 8.69067 110.501 6.92C110.501 5.512 110.138 4.47733 109.413 3.816C108.709 3.13333 107.599 2.792 106.085 2.792C105.317 2.792 104.581 2.84533 103.877 2.952L102.565 12.648ZM135.859 1.224L135.475 6.696H132.851L132.243 3.272L126.003 2.92L124.883 11.432L132.147 10.952L131.731 14.024L124.595 13.64L123.443 22.92L131.475 22.472L133.171 18.312L135.827 18.6L134.643 25H116.275L116.467 23.528L118.899 23.112L121.491 3.176L119.251 2.792L119.443 1.224H135.859ZM151.444 1.192L155.38 23.048L157.908 23.528L157.812 25H147.988L148.052 23.528L150.676 23.112L149.908 18.28H141.812L139.668 23.08L142.58 23.528L142.484 25H134.164L134.292 23.528L136.468 23.112L146.996 1.192H151.444ZM142.708 16.2H149.62L148.212 6.76L148.052 4.136L142.708 16.2ZM174.203 15.496C175.056 13.3627 176.059 10.984 177.211 8.36C178.747 4.712 179.739 2.33333 180.187 1.224H188.539L188.347 2.792L185.563 3.176L184.955 23.08L187.707 23.528L187.611 25H177.499L177.627 23.496L180.571 23.112L181.371 9.416L181.723 3.08L179.419 8.648L172.315 25.032L170.075 25.288L167.739 9.032L166.811 3.08L165.467 9.192L162.139 23.08L165.531 23.528L165.403 25H156.378L156.538 23.528L159.131 23.08L164.251 3.176L161.243 2.792L161.467 1.224H170.779L172.731 15.464L173.115 18.376L174.203 15.496Z" fill="white"/>
</svg>
